<?xml version="1.0" encoding="utf-8"?>
<!-- Generator: Adobe Illustrator 22.1.0, SVG Export Plug-In . SVG Version: 6.00 Build 0)  -->
<svg version="1.1" id="Layer_1" xmlns="http://www.w3.org/2000/svg" xmlns:xlink="http://www.w3.org/1999/xlink" x="0px" y="0px"
	 viewBox="0 0 927.6 277.6" style="enable-background:new 0 0 927.6 277.6;" xml:space="preserve">
<style type="text/css">
	.st0{display:none;fill:#FF0000;}
	.st1{display:none;fill:#DB2323;}
	.st2{display:none;}
	.st3{display:inline;}
	.st4{display:inline;stroke:#FFFFFF;stroke-miterlimit:10;}
</style>
<rect x="84.7" y="107" class="st0" width="1212.8" height="130.7"/>
<rect x="84.6" y="95.8" class="st1" width="903" height="179.2"/>
<g class="st2">
	<path class="st3" d="M331.9,138.3c-2.4-1.4-5.6-1.4-8,0c-2.1,1.3-3.2,3.4-3.1,5.9v9.8c-9.6-12.2-22.1-18.4-37.3-18.4
		c-14.3,0-26.3,4.9-36.6,15.1c-10,9.9-15.1,22.1-15.1,36.3s5.1,26.4,15.1,36.4c10.3,10.2,22.3,15.1,36.6,15.1
		c15.2,0,27.7-6.2,37.3-18.4v9.8c-0.1,2.5,1,4.7,3.1,6c2.4,1.4,5.6,1.4,8,0c2.1-1.2,3.2-3.4,3.1-5.9v-85.7
		C335.2,141.8,334,139.6,331.9,138.3 M320.8,187c0,10.4-3.7,19.3-11.1,26.7c-7.4,7.3-15.9,10.9-26.2,10.9c-10.4,0-19-3.6-26.4-10.9
		c-7.1-7.3-10.8-16.3-10.8-26.7c0-10.3,3.5-19,10.8-26.4c7.5-7.5,16.1-11.1,26.4-11.1c10,0,18.9,3.7,26.2,11.1
		C317.2,168.1,320.8,176.7,320.8,187"/>
	<path class="st3" d="M398.7,137c-3.7-0.9-6.7-1.3-9.3-1.3c-9.6,0-18.4,4.3-23.8,11.4v-3c0-4-3-7-7.1-7c-3.9,0-6.9,3-7.1,7v85.8
		c-0.1,2.6,1.2,4.8,3.3,6c1.2,0.7,2.6,1,3.9,1c1.5,0,2.9-0.4,4.1-1.1c2-1.3,3.1-3.4,2.9-5.8v-56.8c0-6.6,2.2-12,6.8-16.4
		c4.8-4.6,10.3-6.9,16.9-6.9c2.4,0,4.7,0.4,6.2,0.7c0.9,0.2,1.4,0.3,1.8,0.3c3.6,0,7-3.3,7-7C404.3,140.5,402,137.6,398.7,137"/>
	<path class="st3" d="M489.9,139.3c-1.3-1.5-3.1-2.4-5-2.4c-1.8-0.1-3.7,0.6-5.2,1.9l-46.8,42.9c-1.4,1.4-2.2,3.5-2.2,5.6
		c0,1.8,0.7,3.5,1.9,4.5l47.1,43.5c1.5,1.3,3.3,1.9,5,1.9c1.9,0,3.8-0.8,5.2-2.4c2.5-2.7,2.3-7.5-0.4-10.2l-40.9-37.7l40.9-37.4
		C492.2,146.7,492.3,142,489.9,139.3"/>
	<path class="st3" d="M423.4,110.5c-2.4-1.4-5.6-1.4-8,0c-2.1,1.2-3.2,3.4-3.1,5.9v113.5c-0.1,2.5,1,4.7,3.1,6
		c1.2,0.7,2.6,1.1,4,1.1s2.8-0.4,4-1.1c2.1-1.3,3.2-3.4,3.1-5.9V116.5C426.6,113.9,425.5,111.8,423.4,110.5"/>
	<path class="st3" d="M553.7,135.6c-15.2,0-27.7,6.2-37.3,18.4v-9.8c0.1-2.5-1-4.7-3.1-6c-2.4-1.4-5.6-1.4-8,0
		c-2.1,1.2-3.2,3.4-3.1,5.9v113.4c0,4,3.2,7.3,7.1,7.3c3.9,0,7.1-3.3,7.1-7.3V220c9.6,12.2,22.1,18.4,37.3,18.4
		c14.2,0,26.4-5.1,36.4-15.1c10.1-10,15.3-22.2,15.3-36.4c0-14.3-5.1-26.5-15.3-36.3C580.1,140.7,567.9,135.6,553.7,135.6
		 M590.8,187c0,10.6-3.6,19.3-10.9,26.7c-7.2,7.3-15.7,10.9-26.2,10.9c-10.2,0-19.1-3.7-26.4-10.9c-7.3-7.4-10.9-16.1-10.9-26.7
		c0-10.4,3.6-19,10.9-26.4c7.4-7.4,16.2-11.1,26.4-11.1s19,3.7,26.2,11.1C587.3,168,590.8,176.6,590.8,187"/>
	<path class="st3" d="M662.9,135.6c-7.6,0-14.3,2.1-20.6,6.3c-4.1,2.8-7.2,5.7-9.5,8.9v-34.3c0.1-2.5-1-4.7-3.1-6
		c-2.4-1.4-5.6-1.4-8,0c-2.1,1.2-3.2,3.4-3.1,5.9v113.5c-0.1,2.5,1,4.7,3.1,6c2.4,1.4,5.6,1.4,8,0c2.1-1.3,3.2-3.4,3.1-5.9v-53.8
		c0.2-7.1,3.3-13.2,9.5-18.5c6.2-5.4,12.9-8.1,20.6-8.1c14.9,0,24.9,10.1,24.9,25.2v55.1c-0.1,2.5,1,4.7,3.1,6
		c1.2,0.7,2.6,1.1,4,1.1s2.8-0.4,4-1.1c2.1-1.2,3.2-3.4,3.1-5.9v-55.2c0-11.4-3.5-20.9-10.5-28.3C684.6,139.3,675,135.6,662.9,135.6
		"/>
	<path class="st3" d="M729.7,138.3c-2.4-1.4-5.6-1.4-8,0c-2.1,1.2-3.2,3.4-3.1,5.9v85.6c-0.1,2.5,1,4.7,3.1,6c1.2,0.7,2.6,1.1,4,1.1
		s2.8-0.4,4-1.1c2.1-1.3,3.2-3.4,3.1-5.9v-85.7C732.9,141.8,731.8,139.6,729.7,138.3"/>
	<path class="st3" d="M725.7,107.9c-2.4,0-4.7,0.9-6.3,2.5c-3.4,3.4-3.4,9.3,0,12.7c1.6,1.6,3.9,2.5,6.3,2.5c2.4,0,4.7-0.9,6.3-2.5
		s2.5-3.9,2.5-6.3s-0.9-4.7-2.5-6.3C730.4,108.8,728.1,107.9,725.7,107.9"/>
	<path class="st3" d="M796.7,137c-3.7-0.9-6.6-1.3-9.3-1.3c-9.6,0-18.4,4.3-23.8,11.4v-3c0-4-3-7-7.1-7c-3.9,0-6.9,3-7.1,7l0,0v85.8
		c-0.1,2.6,1.2,4.8,3.3,6c1.2,0.7,2.6,1,3.9,1c1.5,0,2.9-0.4,4.1-1.1c2-1.3,3.1-3.4,2.9-5.8v-56.8c0-6.6,2.2-12,6.8-16.4
		c4.8-4.6,10.3-6.9,16.9-6.9c2.4,0,4.7,0.4,6.2,0.7c0.9,0.2,1.4,0.3,1.8,0.3c3.6,0,7-3.3,7-7C802.3,140.5,800,137.6,796.7,137"/>
	<path class="st3" d="M887.6,150.6c-9.9-9.9-22-14.9-36-14.9s-26.2,5.1-36.3,15.1c-9.9,9.9-15,22.1-15,36.3c0,14.1,5,26.4,15,36.4
		s22.2,15.1,36.3,15.1c8.8,0,17.1-2.1,24.5-6.2c7.5-4.2,13.4-9.5,17.4-15.8c1.5-2.1,1.6-4.9,0.4-7.3c-1.3-2.5-3.7-4-6.4-4
		c-2.6,0-4.6,1.1-6,3.5c-6.9,10.1-17.8,15.9-29.9,15.9c-9.1,0-17.3-3.1-24.1-9.2c-6.3-5.9-10.2-12.9-11.9-21.3h80.1
		c4,0,7.3-3.2,7.3-7.2C902.8,172.7,897.6,160.5,887.6,150.6 M887.8,179.9h-72.2c1.7-8.4,5.6-15.5,11.9-21.1c6.9-6.1,15-9.2,24.2-9.2
		s17.3,3.1,24.2,9.4C882.1,164.5,886.1,171.6,887.8,179.9"/>
	<path class="st3" d="M23.2,265.7c0.6,1.7-1.6,2.9-2.7,1.5c-6.2-8-11.2-17.2-14.6-27.1c-4.6-13.2-6.6-27.5-5.6-41.9
		s4.9-28.8,11.6-42.1c3.3-6.6,7.4-13,12-18.9c4.7-5.9,9.9-11.4,15.6-16.3l4.4-3.6c1.5-1.2,3.1-2.3,4.7-3.4c1.6-1.1,3.3-2.2,5-3.1
		l2.6-1.5l1.3-0.7l1.3-0.7c7-3.6,14.4-6.4,22.1-8.4c15.4-3.7,31.8-3.9,47.4-0.1c3.9,0.9,7.7,2.1,11.5,3.4c3.7,1.4,7.5,3,11.1,4.8
		l2.7,1.4l2.6,1.5c1.8,1,3.4,2.1,5.1,3.2c0.9,0.5,1.7,1.1,2.5,1.7l2.5,1.8c1.6,1.3,3.2,2.5,4.7,3.8c6.1,5.3,11.6,11.3,16.4,17.8
		l0.9,1.2l0.9,1.3c0.6,0.9,1.2,1.7,1.7,2.6c1.1,1.8,2.2,3.6,3.1,5.5c2,3.7,3.7,7.6,5.1,11.6l1,3l0.9,3c0.3,1,0.5,2,0.8,3.1
		c0.2,1,0.5,2,0.7,3.1c0.8,4.1,1.3,8.3,1.6,12.5c0.2,4.2,0.1,8.4-0.2,12.6c-0.4,4.2-1.1,8.3-2,12.4c-1,4.1-2.2,8.1-3.8,12
		s-3.3,7.7-5.4,11.3c-2.1,3.6-4.4,7.1-7,10.4c-0.6,0.8-1.3,1.6-2,2.4c-0.7,0.8-1.3,1.6-2.1,2.4c-1.4,1.5-2.9,3.1-4.4,4.5
		c-1.5,1.5-3.1,2.8-4.7,4.2c-0.8,0.7-1.6,1.3-2.5,1.9l-1.2,1l-1.3,0.9l-2.6,1.8l-2.7,1.7c-1.9,1.1-3.8,2.2-5.7,3.1
		c-3.9,1.9-7.9,3.5-12.1,4.7c-4.2,1.2-8.4,2-12.7,2.4c-17.1,1.8-34.5-2.7-48.3-12.2c-6.9-4.7-13-10.6-17.7-17.3
		c-0.6-0.8-1.2-1.7-1.7-2.6l-1-0.9l-0.8-1.4l-0.8-1.4l-0.7-1.4c-0.2-0.5-0.5-0.9-0.7-1.4l-0.7-1.5c-1.8-3.9-3.1-7.9-4-12
		c-1.8-8.2-1.7-16.7,0.1-24.7s5.3-15.5,10.1-21.8c2.4-3.2,5.1-6.1,8.1-8.6l1.1-0.9l1.2-0.9l1.2-0.9l1.2-0.8l1.2-0.8l1.2-0.8
		c0.4-0.2,0.8-0.5,1.2-0.7l1.3-0.7c7-3.7,14.9-5.4,22.4-5.1c7.6,0.3,14.8,2.7,20.8,6.6c0.8,0.5,1.5,1,2.2,1.5
		c0.7,0.6,1.4,1.1,2.1,1.7c1.3,1.1,2.6,2.4,3.7,3.7c0,0,0,0,0.1,0.1c1.2,1.4-0.5,3.3-2,2.3l0,0c-2.7-1.7-5.6-3-8.5-3.9
		c-1.5-0.5-2.9-0.8-4.4-1.1c-1.5-0.2-3-0.5-4.5-0.5c-3-0.2-5.9,0-8.7,0.6c-5.6,1.2-10.7,3.6-14.7,7.1l-0.8,0.7
		c-0.2,0.2-0.5,0.5-0.8,0.7l-0.8,0.7l-0.7,0.7l-0.7,0.7c0,0,0,0-0.1,0.1l-0.6,0.7l-0.7,0.8l-0.5,0.6c-1.7,2.1-3.1,4.4-4.3,6.8
		c-4.7,9.5-5,20.4-1.5,29.3c0.9,2.2,2,4.4,3.2,6.3l0.5,0.7c0.2,0.2,0.3,0.5,0.5,0.7l0.5,0.7c0,0,0,0,0.1,0.1l0.5,0.7l0.5,0.7
		c0,0,0,0,0.1,0.1l0.6,0.7c0.4,0.5,0.8,1,1.3,1.4c3.4,3.7,7.4,6.6,11.6,8.8c8.6,4.4,18.5,5.8,27.5,4.1c2.3-0.4,4.5-1,6.6-1.8
		c2.1-0.8,4.2-1.8,6.1-2.9c1-0.5,1.9-1.2,2.9-1.8l1.3-1c0,0,0,0,0.1,0c0.5-0.4,0.9-0.8,1.4-1.1l0.7-0.5c0,0,0,0,0.1-0.1l0.7-0.6
		c0.5-0.4,0.9-0.8,1.4-1.2c0.9-0.9,1.8-1.7,2.6-2.6c6.6-7,11.2-15.8,13.1-25.2c0.5-2.3,0.8-4.7,1-7.1c0.1-2.4,0.1-4.8,0-7.1
		c-0.2-2.4-0.5-4.7-0.9-7c-0.5-2.3-1.1-4.6-1.9-6.8c-0.8-2.2-1.7-4.4-2.8-6.5c-0.5-1.1-1.1-2-1.7-3.1V165l-0.9-1.5l-0.5-0.7
		c0,0,0,0,0-0.1l-0.5-0.7c-2.9-4.2-6.3-8-10.1-11.4c-3.7-3.5-8-6.4-12.4-8.9c-2.2-1.3-4.5-2.4-6.9-3.4l-1.8-0.7
		c-0.6-0.2-1.2-0.5-1.8-0.7c-1.2-0.4-2.4-0.9-3.7-1.2l-1.8-0.5h-0.1l-1.8-0.4c-1.3-0.3-2.5-0.5-3.8-0.8c-0.6-0.1-1.3-0.2-1.9-0.3
		l-1.9-0.3l-1.9-0.2c-0.6-0.1-1.3-0.1-1.9-0.2c-5.2-0.3-10.5-0.1-15.6,0.7c-5.2,0.8-10.3,2.3-15.3,4.2l-0.9,0.3h-0.1l-0.9,0.4
		l-1.8,0.8c-1.2,0.6-2.4,1.2-3.6,1.8h-0.1c-1.2,0.7-2.3,1.3-3.5,2l-3.6,2.3c-9.3,6.3-17.6,14.4-24.3,23.8
		c-6.7,9.5-11.7,20.3-14.8,32c-3,11.6-4,24.1-2.7,36.6C17.4,247,19.7,256.5,23.2,265.7"/>
</g>
<g class="st2">
	<path class="st4" d="M180.9,141.6c0.7-4.6-0.3-8.7-1.5-12.8c-7.3-23.5-33.3-23.2-45-11.6c-5.4,5.3-8.5,11.8-10.1,19
		c-0.4,1.7-0.6,3.4-0.9,5.3L180.9,141.6L180.9,141.6z M218.6,170.3h-96.9c0.9,12.5,5.1,22.7,15.1,29.9c6.1,4.4,13,6.4,20.2,7.5
		c14.9,2.2,29.4-0.1,43.9-3.8c3.9-1,7.8-2.2,11.8-3.4c1,2.8,1.3,19.3,0.6,28.7c-0.8,0.4-1.8,1-2.8,1.3c-24.5,7.5-49.2,10.3-74.4,4.4
		c-33.9-7.8-47.5-33.7-50.4-57.5c-2-15.9-1.5-31.8,3.4-47.3c6.3-19.7,18-35.1,37.2-43.5c18.3-8,37-8,55.6-0.9
		c12.7,4.8,21.8,14,27.9,26.2c5.7,11.3,8.2,23.5,8.8,36C218.9,155.2,218.6,162.4,218.6,170.3"/>
	<path class="st4" d="M466.7,84.9c10.3,0.3,18.5,3.8,25.2,10.6c6.6,6.6,10.3,14.8,10.4,24.2c0.2,20.2,0.3,40.4-0.1,60.7
		c-0.1,5.8-1.1,11.6-2.7,17.1c-5.4,19-18.4,30.8-36.7,36.4c-18,5.5-36.2,5.4-54.2,0.1c-23-6.8-37.6-25.3-38.8-49.6
		c-0.8-15.1-0.6-30.2-0.6-45.2c0-7.7-0.2-15.6,0.6-23.2c1.6-16.5,16.3-30.1,32.5-31c0.6-0.1,1.3,0.1,2.5,0.1V90
		c0,27.1-0.1,54.3,0.1,81.4c0,5.1,0.5,10.3,1.5,15.3c2.3,11.1,8.9,18.1,20.1,20.5c6.8,1.5,13.6,1.5,20.3-0.4
		c11.3-3.2,17.1-11.3,18.9-22.7c0.6-3.9,0.8-8,0.9-12c0.1-27.3,0.1-54.5,0.1-81.8L466.7,84.9L466.7,84.9z"/>
	<path class="st4" d="M405.1,42.9c0-17.6,13.7-31.4,31-31.3c17.1,0.1,30.7,13.9,30.8,31.2c0.1,17.5-13.7,31.4-31,31.3
		C418.6,74,405.1,60.2,405.1,42.9"/>
	<path class="st4" d="M341.3,204.1c-1.1,0.2-2.2,0.4-3.2,0.7c-8.3,1.8-16.7,3.1-25.2,2c-10.7-1.4-14.2-6.9-14.8-14.7
		c-0.1-1.4-0.3-2.8-0.3-4.1c0-23.1,0-46.3,0-69.4c0-1.2,0.2-2.4,0.3-4h42V84.5h-42.2v-0.1h-0.3c0-12,0-23.9,0-35.8v-5.1
		c-1.3-0.1-1.9-0.2-2.6-0.1c-16.6,0.9-31.4,14.7-33.1,31.5c-0.3,3.2-0.4,6.5-0.5,9.7h-27v30c9.1,0.3,18.1-0.1,27.2,0.3v5.5
		c0,23.7-0.1,47.3,0.1,71c0,4.1,0.3,8.3,0.8,12.4c1.6,13.1,8.2,22.7,20.1,28.3c3.3,1.6,6.8,2.8,10.4,3.7c11,2.8,22.2,2.5,33.4,1.3
		c5.4-0.6,10.8-1.8,16.1-2.7v-30.2C341.8,204.2,341.5,204.1,341.3,204.1"/>
</g>
<g class="st2">
	<g class="st3">
		<path d="M389.4,136.5h-45.2c-8.5,0-15.8,1-22,3c-6.2,2-11.2,4.8-15.1,8.6c-3.9,3.7-6.8,8.2-8.7,13.4c-1.9,5.3-2.8,11.2-2.8,17.7
			v16.3c0,4.9,1,9.9,3.1,14.8c2.1,5,5,9.5,8.9,13.6c3.8,4.1,8.6,7.3,14.1,9.9c5.6,2.5,11.9,3.8,18.9,3.8h48.8c1.1,0,2-0.9,2-2v-97.1
			C391.4,137.4,390.5,136.5,389.4,136.5 M367.8,212.1c0,1.3-0.6,2-2,2l-25.5-0.1c-7.8,0-13.4-2-16.9-6.1c-3.5-4.1-5.3-9.3-5.3-15.8
			v-8.4c0-6.6,1.8-12.2,5.5-16.7c3.7-4.5,9.3-6.8,16.7-6.8l25.5,0.1c1.3,0,2,0.6,2,1.9V212.1z"/>
		<path d="M84.5,138.5c0-1.3,0.6-2,2-2h19.7c1.3,0,2,0.6,2,2v97.2c0,1.3-0.6,2-2,2H86.5c-1.3,0-2-0.6-2-2V138.5z"/>
		<path d="M263.4,212.1c0,1.1,0.9,2,2,2h16.2c1,0.1,1.5,0.8,1.5,2v19.8c0,1.1-0.9,2-2,2h-24.4c-4.9,0-9-1.5-12.2-4.4
			c-3.2-3-4.9-6.5-4.9-10.5v-60.6c0-1-0.8-1.8-1.8-1.8h-10.3c-1.3,0-1.9-0.6-1.9-2v-19.9c0-1,0.8-1.8,1.8-1.8h10.4
			c1,0,1.8-0.8,1.8-1.8v-24.3c0-1.1,0.9-2,2-2h19.7c1.1,0,2,0.9,2,2v23.6c0,1.5,1.1,2.6,2.6,2.6h15.3c1,0,1.8,0.8,1.8,1.8v20
			c0,1-0.8,1.8-1.8,1.8h-16c-1,0-1.8,0.8-1.8,1.8L263.4,212.1L263.4,212.1z"/>
		<path d="M485.1,214c1.3,0,2,0.6,2,2v19.8c0,1.3-0.6,2-2,2h-36.3c-7.1,0-13.4-1.3-18.9-3.8c-5.6-2.5-10.2-5.8-14.1-9.9
			c-3.8-4.1-6.8-8.6-8.9-13.6c-2-5-3.1-9.9-3.1-14.8v-16.3c0-6.6,0.9-12.5,2.8-17.7c1.9-5.3,4.7-9.7,8.7-13.4
			c3.9-3.7,9-6.5,15.1-8.6c6.2-2,13.5-3,22-3H485c1.3,0,2,0.6,2,2v19.8c0,1.3-0.6,2-2,2h-36.5c-7.4,0-13.1,2.3-16.7,6.8
			c-3.7,4.6-5.5,10.1-5.5,16.7v8.2c0,6.5,1.8,11.7,5.3,15.8c3.5,4.1,9.1,6.1,16.9,6.1L485.1,214L485.1,214z"/>
		<path d="M535.7,212.1c0,1.3,0.6,2,2,2h16.2c1,0.1,1.6,0.8,1.6,2v19.8c0,1.3-0.6,2-2,2h-24.4c-4.9,0-9-1.5-12.2-4.4
			c-3.2-3-4.9-6.5-4.9-10.5v-60.5c0-1.3-0.6-2-1.9-2H500c-1.3,0-2-0.6-2-2v-19.8c0-1.3,0.6-2,2-2h10.2c1.3,0,1.9-0.6,1.9-2v-24.3
			c0-1.3,0.6-2,2-2h19.7c1.3,0,2,0.6,2,2v24.3c0,1.3,0.6,2,2,2h15.8c1.3,0,2,0.6,2,2v19.8c0,1.3-0.6,2-2,2h-15.8c-1.3,0-2,0.6-2,2
			V212.1z"/>
		<path d="M102.5,44.8c1.7,0,4.5,0,6.2,0h10c1.7,0,3.2-1.4,3.2-3.1l0-28.3c0-1.7-1.4-3.2-3.1-3.2h-17.7c-1.7,0-3.2,1.4-3.2,3.1
			l-0.1,27.1c0,1.7-1,2.2-2.2,0.9l-19-19.1c-1.2-1.2-3.2-1.2-4.4,0L59.7,34.7c-1.2,1.2-1.2,3.2,0,4.4l19,19.1
			c1.2,1.2,0.8,2.2-0.9,2.2l-26.9-0.1c-1.7,0-3.2,1.4-3.2,3.1v17.8c0,1.7,1.4,3.2,3.1,3.2l27.8,0.1c1.7,0,3.2-1.4,3.2-3.1L81.8,48
			c0-1.7,1.4-3.1,3.2-3.1L102.5,44.8z"/>
		<path d="M158.9,51.1c0-1.7-1.4-3.2-3.1-3.2L128,47.8c-1.7,0-3.2,1.4-3.2,3.1l-0.1,33.5c0,1.7-1.4,3.1-3.2,3.1h-17.5
			c-1.7,0-4.5,0-6.2,0h-10c-1.7,0-3.2,1.4-3.2,3.1L84.6,119c0,1.7,1.4,3.2,3.1,3.2h17.7c1.7,0,3.2-1.4,3.2-3.1l0.1-27.1
			c0-1.7,1-2.2,2.2-0.9l19,19.1c1.2,1.2,3.2,1.2,4.4,0l12.6-12.5c1.2-1.2,1.2-3.2,0-4.4l-19-19.1c-1.2-1.2-0.8-2.2,0.9-2.2l26.9,0.1
			c1.7,0,3.2-1.4,3.2-3.1L158.9,51.1z"/>
		<path d="M215.1,169.9v65.8c0,1.3-0.7,2-2.1,2H194c-1.4,0-2.5-1.1-2.5-2.5V174c0-3.2-0.5-5.9-1.5-8c-0.9-2.1-2.3-3.7-4.1-4.8
			c-1.7-1.2-3.8-2-6.1-2.4c-2.3-0.4-4.8-0.7-7.5-0.7h-18.7c-1.4,0-2.7,0.5-4,1.6c-1.2,1-1.8,2.2-1.8,3.3v72.7c0,1.3-0.7,2-2.1,2
			h-19.3c-1.2,0-2.1-1-2.1-2.2v-38.7l0,0v-47.4c0-3.2,1.3-6.1,4-8.8c2.6-2.7,6-4,10.2-4H182c4.7,0,9,1,12.9,2.8
			c4,1.9,7.5,4.4,10.5,7.5c3,3.1,5.4,6.7,7.1,10.6C214.2,161.5,215.1,165.7,215.1,169.9"/>
	</g>
</g>
<g class="st2">
	<path class="st3" d="M277.2,140.8c-10.2,0-22.2,2-32.6,5.3l-3.3,22.7c8.1-4.3,19.3-7.9,29.5-7.9c6.7,0,11.2,1.4,13.4,3.9
		c1.4,1.6,2,3.7,2,6.7c0,2.4-0.6,6.1-1,7.9c-33.4,0-55.2,12.8-58.5,34.5c-0.2,1.6-0.4,3.2-0.4,4.7c0,5.3,1.6,9.9,4.5,13.4
		c4.1,4.7,10.8,7.3,19.4,7.3c12.6,0,24.4-6.1,31-15.8c-1,3.5-2,8.5-2.8,14h24l3.1-24.6l5.7-38.8c1.6-11,0.2-18.7-4.3-24
		C301.7,143.7,292.1,140.8,277.2,140.8 M282.5,197.6c-1.6,10.4-10.6,21.9-22.4,21.9c-3.3,0-5.9-1-7.3-2.8c-1-1.2-1.6-2.8-1.6-4.7
		c0-0.6,0-1.2,0.2-1.6c1.4-9.5,11.8-14,31.4-14.2C282.7,196.8,282.5,197.6,282.5,197.6 M212,168.8c-6.7,4.9-11.2,15-13.4,30
		l-5.9,38.6h-25.3l14.1-94.4h24c0,0-1.8,9.7-3.3,15.2c5.5-8.7,14.3-17.7,29.3-17.3l-3.7,25C221.6,164.6,216.1,165.6,212,168.8
		 M705.9,141c-28.3,0-51.1,20.9-55.6,50.7c-2.4,16.2-0.2,28.6,6.7,36.5c6.3,7.3,16.5,11,30.3,11c28.3,0,51.1-20.9,55.6-50.7
		c2.4-16,0-28-6.9-36.3C729.6,144.7,719.4,141,705.9,141 M716.7,189.5c-2.6,17.1-11.8,27.8-24.2,27.8c-5.5,0-9.6-1.6-12.4-4.7
		c-3.9-4.5-4.9-12.4-3.3-23.3c2.9-19.7,14.9-26.6,24.6-26.6c5.5,0,9.6,1.6,12.2,4.7C717.1,171.5,718.3,179,716.7,189.5 M190.7,131.7
		h-39.7c-0.2,1.2-15.7,105.6-15.7,105.6h-25.7c0,0,15.5-103.9,15.7-105.6H84.7l3.3-22.3h106.1L190.7,131.7z M416.5,143l-49.3,94.4
		h-25.3L321.2,143h27.7l11.4,61.1l29.3-61.1H416.5z M462.5,140.8c-26.7,0-47,19.7-51.5,50.1c-2.4,16.4-0.2,28.8,6.7,36.7
		c6.7,7.7,17.7,11.6,32.8,11.6c11,0,22.4-2,32.4-5.3l3.1-21.1c-9.4,4.1-19.6,6.3-28.9,6.3c-8.3,0-14.3-2-17.7-6.1
		c-2.6-3-3.7-7.1-3.7-12.4c0-1.8,0.2-3.7,0.6-5.9h57c1-3.5,2-7.7,2.6-11.4c0.4-3.2,0.8-6.1,0.8-9.1c0-9.5-2.6-17.1-7.5-22.9
		C483.3,144.3,474.2,140.8,462.5,140.8 M471.7,176.9h-32.4c3.1-10.4,10.6-17.1,19.8-17.1c4.5,0,8.1,1.4,10.2,4.1
		c1.8,2.2,2.8,5.3,2.8,8.9C472.1,174.1,471.9,175.5,471.7,176.9 M635.1,149.9c-4.9-5.9-12.4-8.7-22-8.7c-12.8,0-23.4,5.7-30.6,15.8
		c1.2-4.7,2.4-10.8,2.8-13.8h-23.8l-20,134.4h25.3c1.8-11.4,5.7-38.2,5.9-39.2c3.3,0.4,6.7,0.8,11.2,0.8c31.4,0,52.5-19.5,57.4-53.4
		C643.8,169.6,641.4,157.3,635.1,149.9 M614.5,187.7c-2.9,20.3-12.6,30.9-27.3,30.9c-4.3,0-8.1-0.6-11.4-1.6
		c0.2-1.4,3.7-25.2,3.7-25.2c2.2-14.6,11.2-30,23.8-30c3.7,0,6.7,1.2,8.6,3.4C615.3,169.4,616.1,176.9,614.5,187.7 M522.8,104.1
		h25.3l-19.8,133.2h-25.3L522.8,104.1z M852,117.3l-26.3,5.9l-12.4,85.9c-1.8,12-0.8,19.3,2.9,23.8c3.5,4.1,9.8,6.1,20.2,6.1
		c6.3,0,13.9-1,20.4-2.6l3.1-20.9c-4.3,1.2-8.8,1.8-12.8,1.8c-3.5,0-5.7-0.6-7.1-2.2c-1-1.2-1.6-3.2-1.6-6.1c0-1.8,0.2-3.7,0.6-6.3
		c0,0,5.3-35.3,6.1-40.2H868l2.9-19.9h-22.6C848.5,142.4,849.9,131.3,852,117.3 M792.5,168.8c-6.7,4.9-11.2,15-13.4,30l-5.7,38.6
		h-25.3l14.1-94.4h24c0,0-1.8,9.7-3.3,15.2c5.5-8.7,14.3-17.7,29.3-17.3l-3.7,25C802.3,164.6,796.8,165.6,792.5,168.8"/>
	<path class="st3" d="M1063.5,141.2c-77.4,0-136.1,10.4-182.3,19.1l93.7,17.5l69.2,13c31-13.8,71.9-23.7,111.6-30.5
		c44.8-7.9,88.2-11.8,114.3-13.8C1211.2,146.5,1129.1,145.1,1063.5,141.2"/>
	<path class="st3" d="M1155.6,163.7c-39.7,6.9-80.5,16.8-111.6,30.5l-69.2-13c-17.3,4.9-33,10.4-44.8,16l147.5,54
		c38.1-38.8,112.6-75.5,158.9-87.7C1202.8,163.7,1177.2,163.9,1155.6,163.7"/>
	<g class="st3">
		<path d="M907.9,112.8c96.9,16.2,199.8,30,351.9,20.9c-62.9-5.3-142.4-28.8-198.4-60.7L907.9,112.8z"/>
	</g>
</g>
<g>
	<path d="M159.9,211.2c17.7,0,28.9-8.8,28.9-31.2c0-22.3-11.3-31.2-28.9-31.2S131,157.6,131,180
		C130.9,202.4,142.2,211.2,159.9,211.2 M159.9,121.1c26.3,0,75.2,1.9,75.2,58.9s-48.8,58.9-75.2,58.9c-26.3,0-75.2-1.9-75.2-58.9
		S133.5,121.1,159.9,121.1"/>
	<path d="M249.1,150.7h37.3v16.1h0.3c10-13.1,22.7-18.5,35.9-18.5c4.2,0,8.5,0.3,12.6,0.9v34.5c-6.8-1.7-12.5-3.1-19.2-3.1
		c-13.7,0-28.4,4.5-28.4,22.7v31.6h-38.6V150.7z"/>
	<path d="M346.2,150.7h38.6V235h-38.6V150.7z M346.2,121.1h38.6v21.3h-38.6V121.1z"/>
	<path d="M460.9,173.4c-15.9,0-21.8,7.7-21.8,16.5c0,9.1,6,16.8,21.8,16.8c16.3,0,22.2-7.7,22.2-16.8
		C483.1,181.1,477.2,173.4,460.9,173.4 M483.1,220.7c-7.7,6.8-19.7,9.1-33.4,9.1c-33.1,0-51.1-14.2-51.1-40.7s22.3-40.7,51.1-40.7
		c15.4,0,27,4.3,34.7,11.9v-9.6h37.3V229c0,27-20.2,37.4-58.7,37.4c-42.1,0-57.3-8.5-61.1-29.6h42.6c0.7,2.8,2.1,4.8,4.8,6.2
		c2.8,1.4,6.9,2.1,12.8,2.1c15.7,0,21.1-5.7,21.1-17.3L483.1,220.7L483.1,220.7z"/>
	<path d="M540.1,150.7h38.6V235h-38.6L540.1,150.7L540.1,150.7z M540.1,121.1h38.6v21.3h-38.6L540.1,121.1L540.1,121.1z"/>
	<path d="M597.2,150.7h37.3v10.5h0.3c4-5.4,16.3-12.8,34.8-12.8c21.3,0,37.3,9.5,37.3,33V235h-38.6v-43.6c0-10.6-5.7-15.2-14.8-15.2
		c-10.2,0-17.9,6-17.9,20.1v38.8h-38.5V150.7z"/>
	<path d="M802.7,196.6c-6.4,1.4-17.5,2.3-31.2,3.5c-7.1,0.7-10.5,2.9-10.5,8.3c0,5.9,4.8,9.5,14.4,9.5c13,0,27.3-3.3,27.3-17.7
		V196.6z M726,176.2c2.3-11.6,7.1-18.7,16.6-23.2c9.4-4.3,23.4-5.9,43.8-5.9c39.3,0,54.9,8.8,54.9,33.9v40.7
		c0,6.4,1.7,10.4,3.5,13.1h-39.5c-0.7-2.4-1.2-5.2-1.4-8.3c-8.6,8-21.8,11.7-42.2,11.7c-25.9,0-42.2-6.9-42.2-28.5
		c0-15.4,10.9-25.3,39.5-26.5l32.5-1.5c7.7-0.5,10.4-2.3,10.4-6.9c0-5.5-6.9-8.1-17.9-8.1c-8.8,0-17.5,1.4-19.4,9.5H726z"/>
	<path d="M878.4,49.5c2.3,5.1,3.7,10.9,3.7,17c0,17.6-11.2,32.7-26.9,38.5c1.2,38.9,33.1,70.2,72.3,70.2V30.2
		C908.7,30.2,891.4,37.5,878.4,49.5"/>
	<path d="M877.3,66.5c0-4.7-0.9-9.1-2.5-13.3c-5.3-13.5-18.4-23-33.7-23v72.4c5,0,9.8-1,14.2-2.9C868.2,94.3,877.3,81.4,877.3,66.5"
		/>
</g>
</svg>
